<svg width="45" height="46" viewBox="0 0 45 46" fill="none" xmlns="http://www.w3.org/2000/svg">
<path d="M40.1786 0H4.82143C3.54271 0 2.31636 0.513923 1.41216 1.42871C0.50797 2.3435 0 3.58422 0 4.87793L0 40.6494C0 41.9431 0.50797 43.1838 1.41216 44.0986C2.31636 45.0134 3.54271 45.5273 4.82143 45.5273H18.6077V30.0491H12.2796V22.7637H18.6077V17.211C18.6077 10.8951 22.3242 7.40632 28.0165 7.40632C30.7426 7.40632 33.5933 7.89818 33.5933 7.89818V14.0972H30.4523C27.3576 14.0972 26.3923 16.0403 26.3923 18.0331V22.7637H33.301L32.1961 30.0491H26.3923V45.5273H40.1786C41.4573 45.5273 42.6836 45.0134 43.5878 44.0986C44.492 43.1838 45 41.9431 45 40.6494V4.87793C45 3.58422 44.492 2.3435 43.5878 1.42871C42.6836 0.513923 41.4573 0 40.1786 0Z" fill="white"/>
</svg>
