<svg width="45" height="46" viewBox="0 0 45 46" fill="none" xmlns="http://www.w3.org/2000/svg">
<path d="M22.5 17.7033C21.4404 17.7037 20.4047 18.0194 19.5239 18.6105C18.6431 19.2016 17.9567 20.0416 17.5515 21.0243C17.1462 22.0069 17.0404 23.0881 17.2474 24.1311C17.4543 25.1741 17.9648 26.1321 18.7142 26.884C19.4636 27.6358 20.4182 28.1478 21.4575 28.3551C22.4967 28.5624 23.5739 28.4558 24.5528 28.0487C25.5317 27.6417 26.3684 26.9524 26.957 26.0681C27.5456 25.1839 27.8598 24.1443 27.8598 23.0808C27.8588 21.6545 27.2937 20.2871 26.2887 19.2788C25.2837 18.2705 23.921 17.7038 22.5 17.7033ZM35.0267 13.5698C34.7539 12.876 34.342 12.2459 33.8166 11.7185C33.2911 11.1912 32.6633 10.7778 31.9721 10.504C29.8627 9.66825 24.8404 9.85576 22.5 9.85576C20.1596 9.85576 15.1423 9.66119 13.0269 10.504C12.3357 10.7778 11.7079 11.1912 11.1824 11.7185C10.657 12.2459 10.2451 12.876 9.97232 13.5698C9.14062 15.6869 9.32645 20.7328 9.32645 23.0798C9.32645 25.4268 9.14062 30.4665 9.97634 32.5907C10.2491 33.2845 10.661 33.9146 11.1864 34.442C11.7119 34.9694 12.3397 35.3828 13.0309 35.6565C15.1403 36.4923 20.1626 36.3048 22.504 36.3048C24.8454 36.3048 29.8607 36.4993 31.9761 35.6565C32.6673 35.3828 33.2952 34.9694 33.8206 34.442C34.3461 33.9146 34.7579 33.2845 35.0307 32.5907C35.8694 30.4736 35.6766 25.4278 35.6766 23.0808C35.6766 20.7338 35.8694 15.695 35.0307 13.5708L35.0267 13.5698ZM22.5 31.3477C20.871 31.3477 19.2785 30.8628 17.924 29.9544C16.5695 29.0461 15.5138 27.7549 14.8904 26.2444C14.267 24.7338 14.1038 23.0716 14.4217 21.468C14.7395 19.8644 15.5239 18.3913 16.6758 17.2352C17.8277 16.0791 19.2954 15.2917 20.8931 14.9727C22.4909 14.6537 24.147 14.8175 25.652 15.4432C27.1571 16.0689 28.4434 17.1284 29.3485 18.4879C30.2535 19.8474 30.7366 21.4457 30.7366 23.0808C30.7379 24.1668 30.5258 25.2424 30.1123 26.2459C29.6989 27.2495 29.0922 28.1614 28.3271 28.9293C27.562 29.6972 26.6535 30.3061 25.6536 30.7211C24.6537 31.1361 23.582 31.349 22.5 31.3477ZM31.0761 16.3967C30.6958 16.3969 30.324 16.2839 30.0077 16.072C29.6914 15.8601 29.4449 15.5588 29.2992 15.2062C29.1535 14.8536 29.1153 14.4656 29.1894 14.0912C29.2635 13.7169 29.4465 13.3729 29.7153 13.103C29.9841 12.833 30.3267 12.6491 30.6997 12.5746C31.0726 12.5001 31.4592 12.5382 31.8106 12.6842C32.162 12.8303 32.4623 13.0776 32.6736 13.3949C32.8849 13.7123 32.9977 14.0854 32.9977 14.4671C32.9987 14.7205 32.9499 14.9717 32.854 15.2062C32.7581 15.4407 32.6171 15.6539 32.4389 15.8335C32.2608 16.0132 32.049 16.1558 31.8159 16.2531C31.5827 16.3504 31.3327 16.4006 31.0801 16.4007L31.0761 16.3967ZM40.1786 0.498047H4.82143C3.54271 0.498047 2.31636 1.00789 1.41216 1.9154C0.50797 2.82292 0 4.05378 0 5.3372L0 40.8243C0 42.1078 0.50797 43.3386 1.41216 44.2461C2.31636 45.1537 3.54271 45.6635 4.82143 45.6635H40.1786C41.4573 45.6635 42.6836 45.1537 43.5878 44.2461C44.492 43.3386 45 42.1078 45 40.8243V5.3372C45 4.05378 44.492 2.82292 43.5878 1.9154C42.6836 1.00789 41.4573 0.498047 40.1786 0.498047ZM38.4589 29.7346C38.3294 32.3185 37.7417 34.608 35.8624 36.4893C33.983 38.3705 31.7039 38.9724 29.1325 39.0953C26.4797 39.2456 18.5263 39.2456 15.8735 39.0953C13.2991 38.9653 11.026 38.3745 9.14364 36.4893C7.26127 34.604 6.66964 32.3135 6.5471 29.7346C6.39743 27.0711 6.39743 19.0875 6.5471 16.4269C6.67667 13.843 7.25725 11.5535 9.14364 9.67228C11.03 7.79106 13.3092 7.19624 15.8735 7.07325C18.5263 6.92303 26.4797 6.92303 29.1325 7.07325C31.7069 7.2033 33.9871 7.79408 35.8624 9.67933C37.7377 11.5646 38.3364 13.8551 38.4589 16.439C38.6086 19.0925 38.6086 27.069 38.4589 29.7346Z" fill="white"/>
</svg>
