<svg width="45" height="46" viewBox="0 0 45 46" fill="none" xmlns="http://www.w3.org/2000/svg">
<path d="M40.1786 0.498047H4.82143C2.1596 0.498047 0 2.64392 0 5.28883V40.4212C0 43.0662 2.1596 45.212 4.82143 45.212H40.1786C42.8404 45.212 45 43.0662 45 40.4212V5.28883C45 2.64392 42.8404 0.498047 40.1786 0.498047ZM35.2667 16.3476C35.2868 16.627 35.2868 16.9165 35.2868 17.1959C35.2868 25.8493 28.6574 35.8201 16.5435 35.8201C12.8069 35.8201 9.34152 34.7422 6.42857 32.8857C6.96094 32.9456 7.47321 32.9656 8.01562 32.9656C11.0993 32.9656 13.9319 31.9276 16.192 30.171C13.2991 30.1111 10.8683 28.2247 10.0346 25.6297C11.0491 25.7794 11.9632 25.7794 13.0078 25.5099C9.99442 24.9011 7.73437 22.2662 7.73437 19.0823V19.0024C8.60826 19.4915 9.63281 19.7909 10.7076 19.8309C9.804 19.2336 9.06326 18.4234 8.55148 17.4725C8.03969 16.5217 7.77278 15.4597 7.77455 14.3813C7.77455 13.1637 8.09598 12.0458 8.66853 11.0777C11.9129 15.0501 16.7846 17.6451 22.2489 17.9245C21.3147 13.4831 24.6596 9.88 28.6775 9.88C30.5759 9.88 32.2835 10.6685 33.4888 11.946C34.9754 11.6666 36.4018 11.1176 37.6674 10.3691C37.1752 11.8861 36.1406 13.1637 34.7746 13.9721C36.1004 13.8324 37.3862 13.4631 38.5714 12.9541C37.6775 14.2616 36.5525 15.4193 35.2667 16.3476Z" fill="white"/>
</svg>
